<svg xmlns="http://www.w3.org/2000/svg" version="1.0" width="299.000000pt" height="232.000000pt" viewBox="0 0 299.000000 232.000000" preserveAspectRatio="xMidYMid meet">

<g transform="translate(0.000000,232.000000) scale(0.100000,-0.100000)" fill="#FFF" stroke="none">
<path d="M1298 2096 l-218 -176 -516 0 -516 0 5 -417 c3 -339 7 -437 21 -518 10 -55 21 -105 25 -112 4 -8 95 59 264 195 141 114 440 354 664 535 225 180 427 344 451 365 l43 37 -3 134 -3 134 -217 -177z m-532 -425 c-8 -12 -463 -381 -470 -381 -3 0 -6 88 -6 195 l0 195 241 0 c142 0 238 -4 235 -9z" fill="#0052a1"/>
<path d="M1928 1817 l-148 -120 0 -743 0 -744 150 0 150 0 0 390 0 390 283 -2 282 -3 -1 -382 c0 -211 2 -383 4 -383 3 0 69 52 148 116 l144 116 0 744 0 744 -145 0 -145 0 0 -330 0 -330 -285 0 -285 0 -2 328 -3 329 -147 -120z" fill="#0052a1"/>
<path d="M1290 1439 c-593 -474 -1070 -862 -1070 -873 0 -20 98 -142 161 -200 82 -76 156 -125 291 -192 l113 -57 130 66 c323 164 497 394 565 747 26 133 42 357 38 537 l-3 151 -225 -179z m-50 -470 c-48 -236 -158 -404 -335 -514 -115 -72 -113 -71 -181 -37 -75 38 -186 120 -182 134 2 5 163 140 358 298 l355 288 3 -32 c2 -18 -7 -80 -18 -137z" fill="#0052a1"/>
</g>
</svg>